<?xml version="1.0" encoding="utf-8"?>
<!-- Generator: Adobe Illustrator 27.3.1, SVG Export Plug-In . SVG Version: 6.00 Build 0)  -->
<svg version="1.1" id="Layer_1" xmlns="http://www.w3.org/2000/svg" xmlns:xlink="http://www.w3.org/1999/xlink" x="0px" y="0px"
	 viewBox="0 0 512 512" style="enable-background:new 0 0 512 512;" xml:space="preserve">
<style type="text/css">
	.st0{stroke:#000000;stroke-miterlimit:10;}
	.st1{stroke:#000000;stroke-width:6;stroke-miterlimit:10;}
</style>
<g>
	<path class="st0" d="M480.7,246.5c-1.1-29.7-24.9-54-54.4-55.4c-0.9,0-1.9-0.1-2.8-0.1c-14.2,0-27.9,5-38.4,14.2
		c-10.7,9.2-17.5,22-19.3,36c-1,8-1.9,14.7-3.2,21.3c-4.4,21.6-14.4,36.8-30.5,46.4c0,0,0,0,0,0c-2.2-0.4-4.5-1-7-1.7
		c-3.4-0.9-7.2-1.9-11.4-2.5c-2.9-0.4-5.7-0.6-8.3-0.6c-18.3,0-27.3,9.1-31.7,16.7c-2.7,4.7-5.4,9.4-8.1,14.1
		c-4,6.8-8.1,13.9-12,20.9c-6.1,10.8-6,22.6,0.4,32.4c4.4,6.8,9.4,14,15.5,20.3c19,19.8,42.4,32.6,60.7,41.5
		c13.1,6.4,31,13.9,53,15.1c1,0.1,2,0.1,3,0.1c13,0,23.9-6.8,30.6-19.2c5.4-9.9,10.9-19.6,16.5-28.7c9.2-15.2,8.5-29.7-2.3-43.1
		c-2.9-3.6-6-7-8.9-10.3c-1.9-2.1-3.7-4.1-5.4-6.1c0.3-13.9,4.3-25.6,12-35.7c7.1-9.4,15.9-17.7,26.7-25.4
		C472.9,284.4,481.4,267.4,480.7,246.5z M270.8,377c6.1,0.7,11.7,0.6,17,2c24,6.1,45.4,17.6,65.2,32.1c9.9,7.2,19.2,15.1,25.8,25.7
		c0.9,1.4,1.6,2.8,2.6,4.7C351.1,445,280.8,404.3,270.8,377z M401.3,405.2c-1.5,2.7-3.1,5.2-4.8,8.2c-14.8-16.3-31.3-30-50-40.8
		c-18.7-10.8-38.8-18.2-60.6-23.1c3.9-6.6,7.4-12.8,11.3-18.8c0.8-1.3,3.5-2.2,5.1-2c7.3,1.1,14.9,1.9,21.9,4.3
		c27.5,9.4,52.4,23.4,73,44.2C412.1,392.2,409.5,390.3,401.3,405.2z M446.2,263c-9.4,7.9-19.3,15.4-27.9,24.2
		c-14.3,14.7-23.1,32.4-25.1,53.1c0,0.2-0.2,0.5-0.7,1.2c-11.3-6.5-22.3-12.9-33.7-19.5c3.1-2.9,5.8-5.5,8.7-8.1
		c16.6-14.9,25.2-34.2,29.2-55.7c1.4-7.2,2.2-14.5,3.3-21.8c2-13.1,11.9-22.7,25.2-24.5c11.8-1.6,24.5,6,29.4,17.6
		C459.7,241.4,456.3,254.5,446.2,263z"/>
	<path class="st0" d="M210.1,99c40.4,0,73,32.9,72.9,73.5c-0.2,39.9-32.9,72.2-73.2,72.2c-40.1,0-72.3-32.4-72.5-72.7
		C137.2,131.6,169.8,99,210.1,99z M155.8,171.9c0,29.9,24.2,54.3,54.1,54.4c30.1,0.1,54.7-24.6,54.7-54.9c0-29.7-24.8-54.1-54.9-54
		C179.8,117.5,155.7,141.9,155.8,171.9z"/>
	<path class="st1" d="M211.4,285.6c-34.9,0-69.8,0.1-104.7-0.1c-2.8,0-6.4-1.2-8.3-3.3c-4.5-4.9-1.7-13,4.8-14.5
		c1.5-0.4,3.1-0.3,4.7-0.3c69.1,0,138.2,0,207.3,0c2,0,4,0.1,5.9,0.7c4,1.3,6,4.6,5.7,9.1c-0.3,4.6-3,7.8-7.1,8.4
		c-1.3,0.2-2.5,0.1-3.8,0.1C280.9,285.6,246.1,285.6,211.4,285.6z"/>
	<path class="st1" d="M167.6,328.2c-19.7,0-39.4,0-59.1,0c-2.2,0-4.6-0.2-6.7-0.9c-3.5-1.1-5.3-3.9-5.4-7.9c-0.1-4,1.5-6.9,4.9-8.3
		c1.9-0.8,4.1-1.1,6.2-1.1c40-0.1,80,0,120,0c0.3,0,0.6,0,0.9,0c6.2,0.2,10.5,3.8,10.5,8.9c0.1,5.7-4.2,9.5-10.8,9.5
		C207.9,328.2,187.7,328.2,167.6,328.2z"/>
	<path class="st1" d="M163.7,414.4c-18.3,0-36.6,0-54.9,0c-1.6,0-3.1,0-4.7-0.2c-4.8-0.6-7.6-3.6-7.8-8.1c-0.2-4.7,2.9-8.9,7.4-9.7
		c2.1-0.4,4.2-0.4,6.4-0.4c35.6,0,71.2,0,106.7,0c2.1,0,4.3,0.1,6.4,0.3c5.2,0.5,8.3,4.1,8.1,9.2c-0.2,5.3-3.2,8.6-8.5,8.8
		c-4.8,0.2-9.6,0.1-14.5,0.1C193.5,414.4,178.6,414.4,163.7,414.4z"/>
	<path class="st1" d="M158.1,370.6c-17.3,0-34.6,0-51.9,0c-5.1,0-8.6-2.5-9.5-6.7c-1.2-5.2,1-9.6,5.9-11c1.6-0.5,3.4-0.6,5-0.6
		c33.6,0,67.3,0,100.9,0c0.6,0,1.1,0,1.7,0c6.1,0.2,9.9,3.6,9.9,9c0.1,5.5-4,9.3-10.1,9.3C192.7,370.6,175.4,370.6,158.1,370.6z"/>
	<path class="st0" d="M201.8,187.8c9.6-11.1,18.8-22,28.2-32.7c1.5-1.7,3.1-3.5,4.9-4.7c3.5-2.4,7.9-2,11,0.9c3.1,3,4,6.5,2.1,10.4
		c-0.8,1.6-2,3.1-3.2,4.5c-11.1,12.9-22.2,25.8-33.3,38.7c-4.5,5.2-8.9,5.9-14.5,2.1c-6.1-4.1-12.1-8.4-18-12.7
		c-5.3-3.8-6.4-9-3.4-13.5c3.1-4.5,8.2-5.1,13.8-1.6c2.1,1.3,4.1,2.8,6.1,4.2C197.4,184.7,199.4,186.1,201.8,187.8z"/>
	<path d="M385.9,60.9c0-2.8-0.1-6.1-0.9-9.5c-2.6-11.2-11-17.8-22.6-17.8l-70.6,0c-58.8,0-122,0-185.6,0.1c-5.9,0-12.2,2.6-16.4,6.7
		C73.3,56.6,55.9,73.9,38.1,91.9c-4.1,4.2-6.7,10.3-6.7,16c-0.1,61.1-0.1,123.2-0.1,183.3c0,54.7,0,109.4-0.1,164.1
		c0,10.7,6,18.6,16.4,21.8c3.8,1.2,7.4,1.3,10.4,1.3c41.3,0,82.6,0,123.9,0c34,0,67.9,0,101.9,0c1.9,0,4.8,0,7.9-0.6
		c10.7-2.2,18.2-11.9,18-22.9c-0.3-11.2-7.7-19.9-18.5-21.8c-3.7-0.6-7.3-0.7-10.6-0.7c-47.7,0-95.4,0-143.1,0l-59.6,0V130.9
		c0.7,0,1.5,0,2.2,0c3.3,0,6.6,0,10,0c4.8,0,9.7,0,14.5,0c13.9-0.1,22.8-8.4,23.8-22.1c0.3-4.2,0.3-8.3,0.3-12.2l0-1.2
		c0-5.1,0-10.2,0-15.4h211.1v11.9c0,29.6,0,59.3,0,88.9c0,2.3,0,5.5,0.7,9c2.1,10.9,11.1,18.3,22.4,18.3h0.1
		c11.3,0,20.3-7.4,22.3-18.4c0.6-3,0.6-5.8,0.6-8C385.9,134.9,385.9,96.5,385.9,60.9z M104.7,108.8c-10.1,0-20,0-30.5,0
		C84.8,98.6,94.9,89,104.7,79.6C104.7,88.4,104.7,98.5,104.7,108.8z"/>
</g>
</svg>
